<?xml version="1.0" encoding="UTF-8"?>
<!DOCTYPE svg PUBLIC "-//W3C//DTD SVG 1.1//EN" "http://www.w3.org/Graphics/SVG/1.1/DTD/svg11.dtd">
<!-- Creator: CorelDRAW 2020 (64-Bit) -->
<svg xmlns="http://www.w3.org/2000/svg" xml:space="preserve" width="72.5634mm" height="8.656mm" version="1.1" style="shape-rendering:geometricPrecision; text-rendering:geometricPrecision; image-rendering:optimizeQuality; fill-rule:evenodd; clip-rule:evenodd"
viewBox="0 0 2298.99 274.24"
 xmlns:xlink="http://www.w3.org/1999/xlink"
 xmlns:xodm="http://www.corel.com/coreldraw/odm/2003">
 <defs>
  <style type="text/css">
   <![CDATA[
    .fil0 {fill:#FEFEFE;fill-rule:nonzero}
   ]]>
  </style>
 </defs>
 <g id="Capa_x0020_1">
  <metadata id="CorelCorpID_0Corel-Layer"/>
  <path class="fil0" d="M205.21 200.71c-17.26,17.26 -43.14,26.64 -66.02,26.64 -64.9,0 -90.04,-45.39 -90.42,-88.91 -0.38,-43.89 27.01,-91.16 90.42,-91.16 22.88,0 46.14,7.88 63.4,24.76l33.01 -31.89c-27.01,-26.64 -60.77,-40.14 -96.41,-40.14 -94.92,0 -139.56,69.78 -139.19,138.44 0.37,68.28 41.64,135.43 139.19,135.43 37.89,0 72.78,-12.38 99.79,-39.02l-33.77 -34.14zm54.4 -195.08l0 262.24 45.39 0 0 -262.24 -45.39 0zm86.66 77.28l0 97.16c0,57.4 32.26,90.79 76.53,90.79 25.89,0 43.52,-9 62.65,-27.76l3 24.76 40.89 0 0 -184.95 -45.39 0 0 94.35c0,28.32 -19.13,51.96 -47.27,51.96 -29.27,0 -44.65,-21.38 -44.65,-49.52l0 -96.79 -45.77 0zm326.01 38.27c29.26,0 52.52,20.63 52.52,54.03 0,32.26 -23.26,54.4 -52.52,54.4 -28.89,0 -53.65,-21.01 -53.65,-54.4 0,-32.27 24.76,-54.03 53.65,-54.03zm-102.42 -115.55l0 262.24 42.77 0 3 -25.51c14.26,22.13 37.14,29.64 59.65,29.64 54.4,0 95.29,-36.02 95.29,-96.79 0,-63.78 -40.14,-96.79 -94.17,-96.79 -19.51,0 -49.9,10.51 -60.78,29.64l0 -102.42 -45.77 0zm363.16 262.24l0 -262.99 -49.14 0 0 262.99 49.14 0zm211.97 0l0 -99.04c0,-24.39 15.38,-45.77 40.14,-45.77 24.76,0 34.89,20.63 34.89,45.02l0 99.79 45.77 0 0 -99.79c0,-55.52 -25.88,-87.79 -78.4,-87.79 -24.01,0 -45.39,7.5 -61.9,33.76 -10.5,-25.51 -32.64,-34.51 -54.77,-34.51 -17.63,0 -39.02,6.75 -48.77,25.51l-3.38 -22.51 -42.39 0 0 185.33 45.77 0 0 -99.04c0,-24.39 14.63,-46.52 39.39,-46.52 25.13,0 37.89,22.14 37.89,46.52l0 99.04 45.77 0zm312.51 -159.45c-10.51,-18.38 -34.14,-30.01 -58.9,-30.01 -54.03,-0.37 -96.42,33.01 -96.42,96.79 0,64.9 40.52,98.67 95.29,98.29 20.63,-0.37 49.52,-10.88 60.03,-32.64l2.25 27.01 43.15 0 0 -184.95 -43.9 0 -1.5 25.51zm-54.78 10.88c72.03,0 72.03,112.17 0,112.17 -30.39,0 -54.77,-21.01 -54.77,-56.27 0,-35.27 24.39,-55.9 54.77,-55.9zm220.22 26.26l-36.39 -62.65 -54.77 0 0 1.5 60.78 89.66 -64.53 92.66 0 1.12 54.77 0 40.14 -61.9 40.14 61.9 54.77 0 0 -1.12 -64.53 -92.66 60.78 -89.66 0 -1.5 -54.77 0 -36.39 62.65zm301.63 46.14c7.13,-76.16 -31.51,-114.42 -93.42,-114.42 -60.03,0 -98.29,40.52 -98.29,96.79 0,59.27 37.89,98.66 101.67,98.66 28.14,0 60.03,-9.75 79.53,-30.01l-29.26 -28.89c-10.5,10.88 -32.64,17.26 -49.52,17.26 -32.26,0 -52.15,-16.51 -55.15,-39.39l144.44 0zm-143.69 -37.89c6.75,-24.01 27.01,-36.02 51.78,-36.02 26.26,0 45.02,12.01 48.02,36.02l-99.8 0zm325.27 -51.77c-21.39,-18.76 -43.15,-24.39 -72.03,-24.39 -33.77,0 -78.03,15.01 -78.03,57.78 0,42.02 41.64,54.77 76.53,57.4 26.26,1.5 36.76,6.75 36.76,19.51 0,13.51 -16.13,22.51 -33.39,22.13 -20.63,-0.37 -50.65,-11.25 -63.78,-25.88l-22.51 32.64c27.01,28.14 56.27,33.01 85.54,33.01 52.9,0 79.54,-28.14 79.54,-60.78 0,-49.14 -44.27,-57.02 -79.16,-59.27 -23.64,-1.5 -34.51,-8.26 -34.51,-20.26 0,-11.63 12,-18.38 33.76,-18.38 17.63,0 32.64,4.13 45.77,16.51l25.51 -30.01zm184.21 0c-21.39,-18.76 -43.15,-24.39 -72.03,-24.39 -33.77,0 -78.04,15.01 -78.04,57.78 0,42.02 41.64,54.77 76.54,57.4 26.26,1.5 36.76,6.75 36.76,19.51 0,13.51 -16.13,22.51 -33.39,22.13 -20.63,-0.37 -50.65,-11.25 -63.78,-25.88l-22.51 32.64c27.01,28.14 56.27,33.01 85.54,33.01 52.9,0 79.54,-28.14 79.54,-60.78 0,-49.14 -44.27,-57.02 -79.16,-59.27 -23.64,-1.5 -34.51,-8.26 -34.51,-20.26 0,-11.63 12,-18.38 33.76,-18.38 17.63,0 32.64,4.13 45.77,16.51l25.51 -30.01z"/>
 </g>
</svg>
