<?xml version="1.0" encoding="UTF-8"?>
<!DOCTYPE svg PUBLIC "-//W3C//DTD SVG 1.1//EN" "http://www.w3.org/Graphics/SVG/1.1/DTD/svg11.dtd">
<!-- Creator: CorelDRAW 2020 (64-Bit) -->
<svg xmlns="http://www.w3.org/2000/svg" xml:space="preserve" width="58.5781mm" height="46.8273mm" version="1.1" style="shape-rendering:geometricPrecision; text-rendering:geometricPrecision; image-rendering:optimizeQuality; fill-rule:evenodd; clip-rule:evenodd"
viewBox="0 0 5857.8 4682.72"
 xmlns:xlink="http://www.w3.org/1999/xlink"
 xmlns:xodm="http://www.corel.com/coreldraw/odm/2003">
 <defs>
  <style type="text/css">
   <![CDATA[
    .fil0 {fill:none}
    .fil3 {fill:#BE9365}
    .fil1 {fill:#FEFEFE;fill-rule:nonzero}
    .fil2 {fill:#E6E7E8;fill-rule:nonzero}
   ]]>
  </style>
 </defs>
 <g id="Capa_x0020_1">
  <metadata id="CorelCorpID_0Corel-Layer"/>
  <rect class="fil0" x="-0" width="5857.8" height="4682.72"/>
  <path class="fil1" d="M826.47 3749.98l0 -388.55c0,-95.67 -50.01,-182.48 -148.7,-182.48 -97.05,0 -154.49,86.81 -154.49,182.48l0 388.55 -179.58 0 0 -727.07 166.35 0 13.23 88.34c38.25,-73.55 122.14,-100.12 191.29,-100.12 86.88,0 173.69,35.35 214.92,135.47 64.77,-103.02 148.61,-132.47 242.82,-132.47 206.05,0 307.65,126.59 307.65,344.39l0 391.46 -179.61 0 0 -391.46c0,-95.66 -39.77,-176.67 -136.82,-176.67 -97.14,0 -157.48,83.91 -157.48,179.58l0 388.55 -179.58 0z"/>
  <path class="fil1" d="M1801.97 3386.47c0,138.35 95.69,220.73 214.92,220.73 282.53,0 282.53,-440.01 0,-440.01 -119.23,0 -214.92,80.91 -214.92,219.28zm435.66 -362.08l172.14 0 0 725.61 -169.24 0 -8.81 -106.02c-41.2,85.43 -154.48,126.59 -235.49,128.11 -214.83,1.45 -373.84,-131.02 -373.84,-385.62 0,-250.18 166.34,-381.2 378.29,-379.74 97.12,0 189.84,45.65 231.04,117.78l5.91 -100.12z"/>
  <polygon class="fil1" points="3023.35,3024.41 3238.18,3024.41 3238.18,3030.29 2999.79,3382.04 3252.87,3745.57 3252.87,3749.93 3038.04,3749.93 2880.56,3507.11 2723.08,3749.93 2508.25,3749.93 2508.25,3745.57 2761.4,3382.04 2522.91,3030.29 2522.91,3024.41 2737.84,3024.41 2880.56,3270.14 "/>
  <path class="fil1" d="M3891.52 3302.56c-11.78,-94.22 -85.33,-141.25 -188.38,-141.25 -97.12,0 -176.58,47.03 -203.05,141.25l391.43 0zm-394.43 148.7c11.79,89.69 89.82,154.49 216.38,154.49 66.15,0 153.06,-25.02 194.19,-67.7l114.88 113.28c-76.55,79.56 -201.69,117.78 -312.05,117.78 -250.17,0 -398.78,-154.58 -398.78,-387.07 0,-220.73 150.06,-379.74 385.55,-379.74 242.85,0 394.43,150.13 366.43,448.96l-566.6 0z"/>
  <path class="fil1" d="M4675.78 3217.2c-51.56,-48.56 -110.37,-64.77 -179.6,-64.77 -85.36,0 -132.39,26.54 -132.39,72.13 0,47.1 42.68,73.57 135.39,79.45 136.9,8.88 310.52,39.78 310.52,232.59 0,128.04 -104.47,238.42 -311.97,238.42 -114.8,0 -229.61,-19.14 -335.63,-129.49l88.36 -128.04c51.53,57.36 169.24,100.04 250.17,101.49 67.68,1.53 131.02,-33.8 131.02,-86.81 0,-50.01 -41.23,-70.67 -144.25,-76.55 -136.92,-10.33 -300.29,-60.37 -300.29,-225.19 0,-167.79 173.7,-226.61 306.17,-226.61 113.26,0 198.71,22.02 282.53,95.69l-100.03 117.69z"/>
  <path class="fil1" d="M5398.25 3217.2c-51.56,-48.56 -110.35,-64.77 -179.58,-64.77 -85.36,0 -132.39,26.54 -132.39,72.13 0,47.1 42.68,73.57 135.37,79.45 136.92,8.88 310.52,39.78 310.52,232.59 0,128.04 -104.47,238.42 -311.97,238.42 -114.81,0 -229.61,-19.14 -335.61,-129.49l88.33 -128.04c51.56,57.36 169.27,100.04 250.18,101.49 67.7,1.53 131.02,-33.8 131.02,-86.81 0,-50.01 -41.23,-70.67 -144.25,-76.55 -136.9,-10.33 -300.27,-60.37 -300.27,-225.19 0,-167.79 173.7,-226.61 306.17,-226.61 113.26,0 198.69,22.02 282.53,95.69l-100.05 117.69z"/>
  <path class="fil1" d="M538.76 2821.5c0,58.82 -47.61,106.6 -106.6,106.6 -58.72,0 -106.53,-47.78 -106.53,-106.6 0,-58.82 47.81,-106.53 106.53,-106.53 58.99,0 106.6,47.71 106.6,106.53z"/>
  <path class="fil2" d="M1271.59 4244.86c4.01,0.92 10.74,0.92 16.3,0.92 42.93,0.34 71.02,-23.13 71.02,-72.8 0,-43.26 -25.26,-66.05 -65.98,-66.05 -10.26,0 -17.33,0.92 -21.34,1.79l0 136.14zm-46.94 -169.43c17.32,-2.84 39.85,-4.7 63.24,-4.7 39.85,0 65.82,7.43 85.51,22.28 21.61,16.05 35.18,41.64 35.18,78.45 0,39.77 -14.42,67.26 -34.24,84.15 -21.92,18.26 -55.55,26.88 -96.27,26.88 -24.41,0 -42,-1.53 -53.42,-3.08l0 -203.98z"/>
  <path class="fil2" d="M1437.78 4129.43l46.97 0 0 150.98 -46.97 0 0 -150.98zm48.49 -42c0,12.96 -9.56,23.47 -25.33,23.47 -14.79,0 -24.41,-10.51 -24.41,-23.47 0,-13.24 9.89,-23.47 24.99,-23.47 15.19,0 24.41,10.23 24.75,23.47z"/>
  <path class="fil2" d="M1602.53 4209.05c-24.66,0 -43.77,5.88 -43.77,23.72 0,12.05 8.01,17.92 18.51,17.92 11.35,0 21.27,-7.67 24.34,-17.22 0.68,-2.49 0.92,-5.3 0.92,-8.04l0 -16.38zm45.41 34.89c0,14.18 0.61,28.09 2.49,36.37l-42.34 0 -2.73 -15.1 -0.94 0c-9.9,12.03 -25.26,18.51 -43.19,18.51 -30.56,0 -48.83,-22.19 -48.83,-46.26 0,-39.17 35.18,-57.68 88.6,-57.68l0 -1.89c0,-8.37 -4.25,-19.79 -27.48,-19.79 -15.46,0 -31.75,5.27 -41.67,11.42l-8.61 -30.22c10.5,-5.88 31.16,-13.65 58.65,-13.65 50.28,0 66.05,29.72 66.05,65.55l0 52.74z"/>
  <path class="fil2" d="M1781.14 4190.84c0,-2.74 -0.27,-5.88 -0.95,-8.62 -3.41,-12.39 -12.29,-20.66 -25.26,-20.66 -17.34,0 -30.89,15.36 -30.89,42.85 0,22.53 11.08,40.11 30.53,40.11 12.29,0 21.95,-8 25.02,-18.77 1.28,-3.75 1.55,-8.61 1.55,-12.73l0 -22.18zm46.93 67.6c0,29.03 -5.9,52.84 -23.22,67.94 -16.29,14.18 -38.84,18.53 -61.02,18.53 -20.06,0 -40.8,-4.02 -54.37,-11.44l9.29 -35.86c9.49,5.56 25.87,11.44 43.8,11.44 22.28,0 39.17,-11.68 39.17,-39.85l0 -9.48 -0.58 0c-8.98,12.29 -23.5,19.38 -40.72,19.38 -37.39,0 -63.93,-30.22 -63.93,-73.41 0,-48.82 31.14,-79.62 68.52,-79.62 20.67,0 33.63,8.95 41.4,21.58l0.61 0 1.54 -18.27 40.7 0c-0.58,9.9 -1.19,22.53 -1.19,45.15l0 83.91z"/>
  <path class="fil2" d="M1865.58 4177.58c0,-18.85 -0.61,-34.55 -1.28,-48.13l40.79 0 2.13 20.98 0.94 0c6.15,-9.9 21.34,-24.39 46.6,-24.39 30.9,0 54.03,20.64 54.03,65.11l0 89.21 -46.94 0 0 -83.64c0,-19.48 -6.75,-32.72 -23.74,-32.72 -12.96,0 -20.73,8.98 -24.07,17.59 -1.26,3.08 -1.52,7.43 -1.52,11.69l0 87.08 -46.94 0 0 -102.78z"/>
  <path class="fil2" d="M2165.48 4063.67l-37.65 46.96 -32.08 0 26.54 -46.96 43.19 0zm-79.39 141.01c0,26.03 10.84,45.41 30.9,45.41 18.53,0 29.95,-18.17 29.95,-45.66 0,-22.18 -8.61,-45.07 -29.95,-45.07 -22.19,0 -30.9,23.13 -30.9,45.32zm109.34 -1.53c0,55.31 -39.27,80.57 -79.72,80.57 -44.14,0 -78.11,-29.01 -78.11,-77.76 0,-49.07 32.18,-80.23 80.94,-80.23 45.99,0 76.89,31.74 76.89,77.42z"/>
  <path class="fil2" d="M2223.96 4239.61c8.71,5.28 26.54,11.08 40.45,11.08 14.18,0 20.06,-4.59 20.06,-12.29 0,-8.01 -4.62,-11.78 -21.95,-17.59 -31.48,-10.47 -43.52,-27.46 -43.19,-45.39 0,-28.35 24.08,-49.67 61.46,-49.67 17.59,0 33.03,4.26 42.24,8.95l-8 32.35c-6.83,-3.68 -20.06,-8.61 -32.69,-8.61 -11.45,0 -17.93,4.69 -17.93,12.02 0,7.43 5.81,11.11 24.41,17.59 28.67,9.9 40.36,24.76 40.72,46.6 0,28.43 -21.94,49.07 -65.13,49.07 -19.72,0 -37.38,-4.6 -48.83,-10.74l8.38 -33.37z"/>
  <path class="fil2" d="M2410.62 4088.68l0 40.72 33.63 0 0 34.58 -33.63 0 0 54.61c0,18.27 4.6,26.56 18.53,26.56 6.49,0 9.56,-0.26 13.82,-1.21l0.34 35.52c-5.88,2.13 -17.23,3.99 -30.22,3.99 -15.1,0 -27.73,-5.27 -35.5,-12.96 -8.63,-8.96 -12.96,-23.47 -12.96,-44.81l0 -61.7 -20.09 0 0 -34.58 20.09 0 0 -28.09 45.99 -12.63z"/>
  <path class="fil2" d="M2471.35 4129.43l46.96 0 0 150.98 -46.96 0 0 -150.98zm48.49 -42c0,12.96 -9.66,23.47 -25.36,23.47 -14.76,0 -24.41,-10.51 -24.41,-23.47 0,-13.24 9.92,-23.47 25.02,-23.47 15.09,0 24.41,10.23 24.75,23.47z"/>
  <path class="fil2" d="M2669.15 4276.37c-8.38,3.99 -24.08,7.06 -42.01,7.06 -48.73,0 -79.96,-29.95 -79.96,-77.16 0,-44.13 30.29,-80.23 86.45,-80.23 12.39,0 25.96,2.13 35.78,5.9l-7.35 34.82c-5.54,-2.47 -13.92,-4.62 -26.28,-4.62 -24.68,0 -40.72,17.59 -40.38,42.27 0,27.49 18.51,42.32 41.3,42.32 11.11,0 19.82,-1.87 26.91,-4.94l5.54 34.58z"/>
  <path class="fil2" d="M2734.79 4204.72c0,25.94 10.76,45.42 30.89,45.42 18.54,0 29.89,-18.27 29.89,-45.68 0,-22.29 -8.62,-45.05 -29.89,-45.05 -22.18,0 -30.89,23.13 -30.89,45.31zm109.26 -1.54c0,55.23 -39.19,80.57 -79.65,80.57 -44.13,0 -78.1,-29.01 -78.1,-77.74 0,-49.17 32.18,-80.33 80.93,-80.33 45.93,0 76.82,31.84 76.82,77.5z"/>
  <path class="fil2" d="M2982.17 4215.54c0,3.68 0.27,6.85 0.95,9.92 3.07,12.63 13.81,22.19 27.48,22.19 20.3,0 32.35,-16.99 32.35,-42.59 0,-24.07 -10.84,-42.34 -31.77,-42.34 -13.3,0 -24.99,9.9 -28.06,23.81 -0.68,2.47 -0.95,5.54 -0.95,8.27l0 20.74zm-46.94 -35.5c0,-19.71 -0.6,-36.43 -1.21,-50.61l40.72 0 2.13 21 0.61 0c11.18,-15.8 28.43,-24.41 50.35,-24.41 33.05,0 62.66,28.77 62.66,76.89 0,54.9 -34.91,80.84 -68.54,80.84 -18.17,0 -32.45,-7.43 -39.17,-17.23l-0.61 0 0 74.93 -46.94 0 0 -161.41z"/>
  <path class="fil2" d="M3159.47 4204.72c0,25.94 10.75,45.42 30.9,45.42 18.54,0 29.88,-18.27 29.88,-45.68 0,-22.29 -8.64,-45.05 -29.88,-45.05 -22.19,0 -30.9,23.13 -30.9,45.31zm109.27 -1.54c0,55.23 -39.2,80.57 -79.65,80.57 -44.13,0 -78.1,-29.01 -78.1,-77.74 0,-49.17 32.18,-80.33 80.93,-80.33 45.9,0 76.82,31.84 76.82,77.5z"/>
  <path class="fil2" d="M3297.63 4179.13c0,-22.29 -0.34,-36.78 -1.28,-49.77l40.21 0 1.79 27.82 1.28 0c7.67,-22.19 25.87,-31.48 40.7,-31.48 4.35,0 6.51,0.34 9.92,0.95l0 44.1c-3.68,-0.58 -7.43,-1.18 -12.63,-1.18 -17.35,0 -29.04,9.22 -32.11,23.73 -0.68,3.08 -0.94,6.83 -0.94,10.5l0 76.56 -46.94 0 0 -101.23z"/>
  <path class="fil2" d="M3477.18 4129.43l46.94 0 0 150.98 -46.94 0 0 -150.98zm48.39 -42c0,12.96 -9.56,23.47 -25.26,23.47 -14.85,0 -24.41,-10.51 -24.41,-23.47 0,-13.24 9.89,-23.47 24.99,-23.47 15.12,0 24.41,10.23 24.68,23.47z"/>
  <path class="fil2" d="M3561.65 4177.58c0,-18.85 -0.58,-34.55 -1.26,-48.13l39.85 0 1.88 20.3 0.85 0c6.58,-9.8 20.13,-24.07 45.75,-24.07 19.72,0 34.82,10.26 41.31,25.96l0.67 0c5.81,-8.03 12.29,-14.18 19.72,-18.53 8.37,-4.6 17.59,-7.43 28.7,-7.43 29.01,0 50.95,20.42 50.95,65.81l0 88.87 -45.68 0 0 -82.12c0,-21.95 -7.06,-34.58 -22.26,-34.58 -11.1,0 -18.43,7.43 -21.85,16.41 -0.94,3.31 -1.62,8.01 -1.62,12.02l0 88.27 -45.68 0 0 -84.93c0,-18.8 -6.72,-31.77 -21.92,-31.77 -12.05,0 -19.14,9.32 -21.87,16.65 -1.52,3.75 -1.86,8.03 -1.86,12.05l0 88 -45.68 0 0 -102.78z"/>
  <path class="fil2" d="M3907.1 4209.05c-24.65,0 -43.77,5.88 -43.77,23.72 0,12.05 8.01,17.92 18.51,17.92 11.35,0 21.27,-7.67 24.34,-17.22 0.68,-2.49 0.92,-5.3 0.92,-8.04l0 -16.38zm45.42 34.89c0,14.18 0.6,28.09 2.49,36.37l-42.34 0 -2.74 -15.1 -0.94 0c-9.89,12.03 -25.26,18.51 -43.19,18.51 -30.56,0 -48.82,-22.19 -48.82,-46.26 0,-39.17 35.18,-57.68 88.6,-57.68l0 -1.89c0,-8.37 -4.26,-19.79 -27.49,-19.79 -15.46,0 -31.74,5.27 -41.66,11.42l-8.61 -30.22c10.5,-5.88 31.16,-13.65 58.65,-13.65 50.27,0 66.05,29.72 66.05,65.55l0 52.74z"/>
  <path class="fil2" d="M4085.71 4190.84c0,-2.74 -0.26,-5.88 -0.94,-8.62 -3.41,-12.39 -12.29,-20.66 -25.26,-20.66 -17.35,0 -30.9,15.36 -30.9,42.85 0,22.53 11.08,40.11 30.54,40.11 12.29,0 21.94,-8 25.01,-18.77 1.29,-3.75 1.55,-8.61 1.55,-12.73l0 -22.18zm46.94 67.6c0,29.03 -5.9,52.84 -23.23,67.94 -16.28,14.18 -38.83,18.53 -61.02,18.53 -20.05,0 -40.79,-4.02 -54.36,-11.44l9.29 -35.86c9.48,5.56 25.86,11.44 43.79,11.44 22.28,0 39.17,-11.68 39.17,-39.85l0 -9.48 -0.58 0c-8.97,12.29 -23.49,19.38 -40.72,19.38 -37.38,0 -63.92,-30.22 -63.92,-73.41 0,-48.82 31.14,-79.62 68.52,-79.62 20.66,0 33.63,8.95 41.4,21.58l0.6 0 1.55 -18.27 40.7 0c-0.58,9.9 -1.19,22.53 -1.19,45.15l0 83.91z"/>
  <path class="fil2" d="M4261.49 4187.74c0,-11.42 -4.94,-30.56 -26.54,-30.56 -19.72,0 -27.73,18.2 -29.01,30.56l55.55 0zm-55.21 32.11c1.18,19.45 20.66,28.67 42.58,28.67 16.07,0 29.03,-2.13 41.66,-6.39l6.15 31.74c-15.46,6.49 -34.24,9.56 -54.63,9.56 -51.22,0 -80.57,-29.61 -80.57,-76.82 0,-38.32 23.81,-80.57 76.31,-80.57 48.73,0 67.26,37.99 67.26,75.27 0,8.04 -0.94,15.12 -1.55,18.54l-97.21 0z"/>
  <path class="fil2" d="M4332.99 4177.58c0,-18.85 -0.61,-34.55 -1.29,-48.13l40.8 0 2.13 20.98 0.94 0c6.15,-9.9 21.34,-24.39 46.6,-24.39 30.9,0 54.03,20.64 54.03,65.11l0 89.21 -46.94 0 0 -83.64c0,-19.48 -6.75,-32.72 -23.74,-32.72 -12.96,0 -20.73,8.98 -24.07,17.59 -1.28,3.08 -1.52,7.43 -1.52,11.69l0 87.08 -46.94 0 0 -102.78z"/>
  <path class="fil2" d="M3666.05 337.82l-1609.1 0c-145.46,0 -263.34,117.88 -263.34,263.34l0 1609.19c0,145.44 117.88,263.32 263.34,263.32l191.7 0 88.43 -282.09c-257,-170.21 -426.51,-461.86 -426.51,-793.12 0,-525.2 425.74,-950.87 950.84,-950.87 525.28,0 950.95,425.67 950.95,950.87 0,347.9 -187.11,652.11 -465.95,817.94l58.38 257.27 261.26 0c145.46,0 263.34,-117.88 263.34,-263.32l0 -1609.19c0,-145.46 -117.88,-263.34 -263.34,-263.34z"/>
  <path class="fil1" d="M2861.45 528.72c-479.26,0 -867.81,388.52 -867.81,867.88 0,296.44 148.68,558.06 375.49,714.67l98.74 -314.87c0,-12.8 1.11,-24.15 2.83,-34.82 -89.38,-95.59 -144.18,-223.9 -144.18,-364.98 0,-295.42 239.6,-534.93 534.93,-534.93 295.49,0 535,239.51 535,534.93 0,146.48 -58.89,279.19 -154.31,375.82 0.67,7.6 1.18,15.44 1.18,23.98l76.48 337.06c245.92,-153.2 409.62,-425.83 409.62,-736.86 0,-479.36 -388.52,-867.88 -867.97,-867.88z"/>
  <path class="fil1" d="M3318.8 2485.69c0,131.04 -100.02,131.8 -223.2,131.8l-539.02 0c-123.08,0 -222.93,-0.76 -222.93,-131.8l179.57 -573.32c37.38,-131.96 99.88,-125.12 223.03,-125.12l229.35 0c123.18,0 189.83,-16.06 223.03,125.12l130.17 573.32z"/>
  <path class="fil3" d="M3025.65 1399.77c0,90.63 -73.5,164.21 -164.24,164.21 -90.63,0 -164.14,-73.58 -164.14,-164.21 0,-90.66 73.51,-164.24 164.14,-164.24 90.74,0 164.24,73.58 164.24,164.24z"/>
 </g>
</svg>
