<?xml version="1.0" encoding="UTF-8"?>
<!DOCTYPE svg PUBLIC "-//W3C//DTD SVG 1.1//EN" "http://www.w3.org/Graphics/SVG/1.1/DTD/svg11.dtd">
<!-- Creator: CorelDRAW 2020 (64-Bit) -->
<svg xmlns="http://www.w3.org/2000/svg" xml:space="preserve" width="35.752mm" height="10.5107mm" version="1.1" style="shape-rendering:geometricPrecision; text-rendering:geometricPrecision; image-rendering:optimizeQuality; fill-rule:evenodd; clip-rule:evenodd"
viewBox="0 0 2975.49 874.76"
 xmlns:xlink="http://www.w3.org/1999/xlink"
 xmlns:xodm="http://www.corel.com/coreldraw/odm/2003">
 <defs>
  <style type="text/css">
   <![CDATA[
    .fil4 {fill:#BE9365}
    .fil3 {fill:#00A9BB;fill-rule:nonzero}
    .fil1 {fill:#263879;fill-rule:nonzero}
    .fil0 {fill:#A7DFE8;fill-rule:nonzero}
    .fil2 {fill:#BE9365;fill-rule:nonzero}
   ]]>
  </style>
 </defs>
 <g id="Capa_x0020_1">
  <metadata id="CorelCorpID_0Corel-Layer"/>
  <path class="fil0" d="M718.54 0l-617.48 0c-55.81,0 -101.06,45.24 -101.06,101.03l0 617.5c0,55.81 45.25,101.03 101.06,101.03l73.55 0 33.91 -108.25c-98.59,-65.32 -163.62,-177.22 -163.62,-304.32 0,-201.53 163.36,-364.89 364.86,-364.89 201.59,0 364.89,163.36 364.89,364.89 0,133.53 -71.78,250.24 -178.8,313.83l22.4 98.74 100.3 0c55.78,0 101.03,-45.22 101.03,-101.03l0 -617.5c0,-55.79 -45.25,-101.03 -101.03,-101.03z"/>
  <path class="fil1" d="M1169.81 512.43l0 -149.03c0,-36.67 -19.18,-70 -56.99,-70 -37.29,0 -59.31,33.33 -59.31,70l0 149.03 -68.84 0 0 -278.86 63.77 0 5.08 33.88c14.68,-28.25 46.86,-38.38 73.41,-38.38 33.29,0 66.61,13.53 82.41,51.91 24.81,-39.52 57.02,-50.79 93.16,-50.79 79.01,0 117.94,48.56 117.94,132.1l0 150.15 -68.88 0 0 -150.15c0,-36.7 -15.21,-67.74 -52.5,-67.74 -37.23,0 -60.36,32.18 -60.36,68.85l0 149.03 -68.88 0z"/>
  <path class="fil1" d="M1544.21 372.99c0,53.08 36.67,84.67 82.42,84.67 108.37,0 108.37,-168.77 0,-168.77 -45.75,0 -82.42,31.03 -82.42,84.09zm167.06 -138.85l66.06 0 0 278.27 -64.92 0 -3.38 -40.63c-15.82,32.73 -59.28,48.53 -90.31,49.12 -82.44,0.56 -143.4,-50.27 -143.4,-147.92 0,-95.95 63.8,-146.19 145.1,-145.63 37.23,0 72.79,17.5 88.61,45.16l2.23 -38.38z"/>
  <polygon class="fil1" points="2012.79,234.13 2095.24,234.13 2095.24,236.39 2003.75,371.3 2100.87,510.73 2100.87,512.44 2018.43,512.44 1958.06,419.28 1897.64,512.44 1815.23,512.44 1815.23,510.73 1912.32,371.3 1820.89,236.39 1820.89,234.13 1903.31,234.13 1958.06,328.41 "/>
  <path class="fil1" d="M2345.94 340.83c-4.49,-36.12 -32.74,-54.21 -72.26,-54.21 -37.23,0 -67.74,18.08 -77.89,54.21l150.15 0zm-151.26 57.01c4.49,34.45 34.44,59.26 82.97,59.26 25.4,0 58.72,-9.58 74.52,-25.96l44.01 43.49c-29.34,30.47 -77.33,45.15 -119.65,45.15 -95.98,0 -152.99,-59.27 -152.99,-148.47 0,-84.67 57.58,-145.62 147.88,-145.62 93.16,0 151.3,57.58 140.58,172.16l-217.32 0z"/>
  <path class="fil1" d="M2646.91 308.08c-19.76,-18.61 -42.34,-24.83 -68.88,-24.83 -32.74,0 -50.79,10.15 -50.79,27.66 0,18.06 16.35,28.25 51.91,30.48 52.49,3.4 119.11,15.24 119.11,89.19 0,49.12 -40.05,91.46 -119.65,91.46 -44.03,0 -88.08,-7.34 -128.71,-49.68l33.85 -49.12c19.76,22.02 64.92,38.38 95.98,38.97 25.98,0.56 50.24,-12.98 50.24,-33.32 0,-19.18 -15.8,-27.1 -55.31,-29.34 -52.5,-3.96 -115.15,-23.13 -115.15,-86.37 0,-64.36 66.62,-86.94 117.42,-86.94 43.48,0 76.18,8.48 108.39,36.7l-38.4 45.15z"/>
  <path class="fil1" d="M2924.14 308.08c-19.77,-18.61 -42.34,-24.83 -68.89,-24.83 -32.73,0 -50.79,10.15 -50.79,27.66 0,18.06 16.35,28.25 51.91,30.48 52.5,3.4 119.12,15.24 119.12,89.19 0,49.12 -40.05,91.46 -119.65,91.46 -44.04,0 -88.08,-7.34 -128.72,-49.68l33.86 -49.12c19.76,22.02 64.92,38.38 95.98,38.97 25.98,0.56 50.24,-12.98 50.24,-33.32 0,-19.18 -15.8,-27.1 -55.31,-29.34 -52.5,-3.96 -115.15,-23.13 -115.15,-86.37 0,-64.36 66.61,-86.94 117.41,-86.94 43.49,0 76.19,8.48 108.4,36.7l-38.4 45.15z"/>
  <path class="fil1" d="M1059.53 156.17c0,22.57 -18.29,40.9 -40.93,40.9 -22.55,0 -40.84,-18.33 -40.84,-40.9 0,-22.61 18.29,-40.87 40.84,-40.87 22.64,0 40.93,18.26 40.93,40.87z"/>
  <path class="fil2" d="M1340.66 702.33c1.56,0.35 4.17,0.35 6.28,0.35 16.41,0.12 27.21,-8.86 27.21,-27.89 0,-16.56 -9.71,-25.31 -25.33,-25.31 -3.88,0 -6.61,0.32 -8.16,0.71l0 52.14zm-17.97 -64.92c6.61,-1.08 15.24,-1.79 24.25,-1.79 15.24,0 25.19,2.85 32.77,8.51 8.25,6.17 13.47,15.97 13.47,30.06 0,15.24 -5.55,25.75 -13.12,32.27 -8.4,6.99 -21.31,10.31 -36.9,10.31 -9.34,0 -16.09,-0.62 -20.47,-1.21l0 -78.16z"/>
  <path class="fil2" d="M1404.48 658.1l17.97 0 0 57.84 -17.97 0 0 -57.84zm18.56 -16.09c0,4.96 -3.67,8.99 -9.7,8.99 -5.66,0 -9.33,-4.03 -9.33,-8.99 0,-5.08 3.79,-8.98 9.57,-8.98 5.78,0 9.33,3.9 9.45,8.98z"/>
  <path class="fil2" d="M1467.65 688.62c-9.45,0 -16.79,2.26 -16.79,9.13 0,4.58 3.09,6.84 7.11,6.84 4.38,0 8.16,-2.97 9.34,-6.64 0.23,-0.94 0.35,-2 0.35,-3.05l0 -6.28zm17.41 13.36c0,5.46 0.24,10.77 0.92,13.97l-16.21 0 -1.06 -5.82 -0.35 0c-3.76,4.64 -9.69,7.11 -16.56,7.11 -11.68,0 -18.67,-8.51 -18.67,-17.74 0,-15.03 13.47,-22.14 33.91,-22.14l0 -0.7c0,-3.2 -1.61,-7.57 -10.51,-7.57 -5.9,0 -12.18,2.02 -15.97,4.37l-3.29 -11.57c4.02,-2.26 11.95,-5.19 22.46,-5.19 19.29,0 25.33,11.34 25.33,25.08l0 20.2z"/>
  <path class="fil2" d="M1536.15 681.64c0,-1.08 -0.12,-2.26 -0.36,-3.31 -1.29,-4.73 -4.73,-7.93 -9.69,-7.93 -6.61,0 -11.83,5.9 -11.83,16.45 0,8.63 4.26,15.38 11.72,15.38 4.73,0 8.4,-3.08 9.57,-7.22 0.47,-1.41 0.59,-3.32 0.59,-4.85l0 -8.51zm17.99 25.9c0,11.13 -2.26,20.23 -8.86,26.02 -6.26,5.46 -14.91,7.1 -23.43,7.1 -7.7,0 -15.62,-1.52 -20.82,-4.37l3.55 -13.72c3.67,2.11 9.95,4.34 16.79,4.34 8.51,0 15.03,-4.46 15.03,-15.24l0 -3.67 -0.26 0c-3.41,4.73 -8.99,7.46 -15.6,7.46 -14.32,0 -24.49,-11.59 -24.49,-28.16 0,-18.67 11.95,-30.5 26.25,-30.5 7.93,0 12.92,3.44 15.85,8.28l0.23 0 0.62 -6.99 15.6 0c-0.24,3.79 -0.47,8.63 -0.47,17.26l0 32.18z"/>
  <path class="fil2" d="M1568.63 676.56c0,-7.22 -0.27,-13.24 -0.5,-18.43l15.65 0 0.82 8.04 0.36 0c2.35,-3.79 8.13,-9.36 17.84,-9.36 11.81,0 20.71,7.92 20.71,24.95l0 34.18 -17.97 0 0 -32.03c0,-7.46 -2.61,-12.53 -9.14,-12.53 -4.96,0 -7.9,3.4 -9.21,6.72 -0.47,1.18 -0.59,2.85 -0.59,4.53l0 33.32 -17.97 0 0 -39.37z"/>
  <path class="fil2" d="M1683.63 632.91l-14.41 17.97 -12.3 0 10.16 -17.97 16.55 0zm-30.39 54.06c0,9.95 4.11,17.41 11.8,17.41 7.11,0 11.49,-6.99 11.49,-17.54 0,-8.51 -3.29,-17.26 -11.49,-17.26 -8.51,0 -11.8,8.87 -11.8,17.39zm41.87 -0.59c0,21.17 -15.03,30.89 -30.51,30.89 -16.94,0 -29.94,-11.13 -29.94,-29.83 0,-18.79 12.3,-30.74 31,-30.74 17.62,0 29.45,12.18 29.45,29.69z"/>
  <path class="fil2" d="M1706.17 700.33c3.29,2 10.16,4.26 15.48,4.26 5.46,0 7.69,-1.8 7.69,-4.73 0,-3.09 -1.76,-4.49 -8.4,-6.76 -12.07,-4.02 -16.65,-10.51 -16.56,-17.38 0,-10.86 9.22,-19.03 23.52,-19.03 6.78,0 12.68,1.64 16.24,3.4l-3.11 12.42c-2.56,-1.41 -7.67,-3.31 -12.51,-3.31 -4.4,0 -6.87,1.79 -6.87,4.64 0,2.82 2.26,4.26 9.36,6.72 10.98,3.79 15.47,9.45 15.59,17.88 0,10.87 -8.4,18.79 -24.95,18.79 -7.55,0 -14.31,-1.76 -18.68,-4.14l3.2 -12.78z"/>
  <path class="fil2" d="M1777.74 642.5l0 15.62 12.89 0 0 13.24 -12.89 0 0 20.93c0,6.99 1.8,10.16 7.08,10.16 2.49,0 3.67,-0.12 5.34,-0.47l0.12 13.6c-2.23,0.85 -6.64,1.56 -11.6,1.56 -5.78,0 -10.63,-2.03 -13.62,-4.96 -3.29,-3.44 -4.96,-9.02 -4.96,-17.15l0 -23.66 -7.67 0 0 -13.24 7.67 0 0 -10.78 17.64 -4.84z"/>
  <path class="fil2" d="M1801.07 658.1l17.97 0 0 57.84 -17.97 0 0 -57.84zm18.56 -16.09c0,4.96 -3.67,8.99 -9.69,8.99 -5.7,0 -9.37,-4.03 -9.37,-8.99 0,-5.08 3.79,-8.98 9.6,-8.98 5.78,0 9.34,3.9 9.45,8.98z"/>
  <path class="fil2" d="M1876.88 714.4c-3.17,1.53 -9.19,2.7 -16.05,2.7 -18.71,0 -30.65,-11.45 -30.65,-29.57 0,-16.91 11.59,-30.74 33.12,-30.74 4.73,0 9.95,0.82 13.74,2.26l-2.85 13.37c-2.15,-0.94 -5.32,-1.8 -10.07,-1.8 -9.45,0 -15.62,6.76 -15.47,16.21 0,10.54 7.07,16.2 15.82,16.2 4.29,0 7.57,-0.71 10.3,-1.88l2.11 13.24z"/>
  <path class="fil2" d="M1902.15 686.97c0,9.92 4.14,17.38 11.8,17.38 7.13,0 11.48,-6.99 11.48,-17.49 0,-8.52 -3.29,-17.27 -11.48,-17.27 -8.51,0 -11.8,8.87 -11.8,17.39zm41.86 -0.59c0,21.17 -15.03,30.86 -30.5,30.86 -16.91,0 -29.94,-11.13 -29.94,-29.8 0,-18.82 12.3,-30.74 31,-30.74 17.59,0 29.45,12.16 29.45,29.69z"/>
  <path class="fil2" d="M1997.08 691.11c0,1.41 0.12,2.59 0.36,3.79 1.17,4.85 5.31,8.52 10.51,8.52 7.81,0 12.42,-6.52 12.42,-16.33 0,-9.22 -4.14,-16.2 -12.18,-16.2 -5.08,0 -9.57,3.79 -10.74,9.1 -0.24,0.94 -0.36,2.11 -0.36,3.2l0 7.92zm-17.97 -13.59c0,-7.57 -0.26,-13.97 -0.5,-19.41l15.62 0 0.85 8.05 0.21 0c4.26,-6.05 10.89,-9.34 19.29,-9.34 12.65,0 24.02,10.98 24.02,29.42 0,21.08 -13.39,31 -26.25,31 -7.02,0 -12.42,-2.85 -15.03,-6.61l-0.24 0 0 28.75 -17.97 0 0 -61.86z"/>
  <path class="fil2" d="M2065.12 686.97c0,9.92 4.14,17.38 11.8,17.38 7.14,0 11.49,-6.99 11.49,-17.49 0,-8.52 -3.29,-17.27 -11.49,-17.27 -8.51,0 -11.8,8.87 -11.8,17.39zm41.87 -0.59c0,21.17 -15.03,30.86 -30.51,30.86 -16.91,0 -29.94,-11.13 -29.94,-29.8 0,-18.82 12.3,-30.74 31,-30.74 17.59,0 29.45,12.16 29.45,29.69z"/>
  <path class="fil2" d="M2118.16 677.15c0,-8.51 -0.15,-14.07 -0.5,-19.03l15.38 0 0.71 10.63 0.5 0c2.94,-8.51 9.92,-12.07 15.59,-12.07 1.67,0 2.5,0.12 3.79,0.35l0 16.91c-1.41,-0.23 -2.85,-0.47 -4.84,-0.47 -6.63,0 -11.13,3.55 -12.3,9.13 -0.23,1.17 -0.35,2.58 -0.35,3.99l0 29.33 -17.97 0 0 -38.78z"/>
  <path class="fil2" d="M2187.08 658.1l17.97 0 0 57.84 -17.97 0 0 -57.84zm18.53 -16.09c0,4.96 -3.67,8.99 -9.69,8.99 -5.67,0 -9.34,-4.03 -9.34,-8.99 0,-5.08 3.79,-8.98 9.57,-8.98 5.78,0 9.34,3.9 9.45,8.98z"/>
  <path class="fil2" d="M2219.49 676.56c0,-7.22 -0.27,-13.24 -0.5,-18.43l15.26 0 0.71 7.77 0.35 0c2.5,-3.79 7.72,-9.21 17.53,-9.21 7.58,0 13.37,3.9 15.85,9.95l0.24 0c2.23,-3.09 4.73,-5.47 7.54,-7.11 3.2,-1.79 6.76,-2.85 10.99,-2.85 11.13,0 19.52,7.81 19.52,25.19l0 34.06 -17.47 0 0 -31.44c0,-8.4 -2.73,-13.24 -8.51,-13.24 -4.29,0 -7.11,2.85 -8.4,6.25 -0.38,1.32 -0.62,3.08 -0.62,4.61l0 33.82 -17.5 0 0 -32.53c0,-7.19 -2.58,-12.15 -8.4,-12.15 -4.61,0 -7.34,3.52 -8.4,6.37 -0.58,1.41 -0.71,3.08 -0.71,4.61l0 33.71 -17.49 0 0 -39.37z"/>
  <path class="fil2" d="M2352.01 688.62c-9.45,0 -16.79,2.26 -16.79,9.13 0,4.58 3.08,6.84 7.11,6.84 4.37,0 8.16,-2.97 9.34,-6.64 0.23,-0.94 0.35,-2 0.35,-3.05l0 -6.28zm17.41 13.36c0,5.46 0.23,10.77 0.91,13.97l-16.2 0 -1.06 -5.82 -0.35 0c-3.76,4.64 -9.7,7.11 -16.56,7.11 -11.68,0 -18.68,-8.51 -18.68,-17.74 0,-15.03 13.47,-22.14 33.91,-22.14l0 -0.7c0,-3.2 -1.61,-7.57 -10.51,-7.57 -5.9,0 -12.18,2.02 -15.97,4.37l-3.29 -11.57c4.02,-2.26 11.94,-5.19 22.45,-5.19 19.29,0 25.34,11.34 25.34,25.08l0 20.2z"/>
  <path class="fil2" d="M2420.51 681.64c0,-1.08 -0.12,-2.26 -0.35,-3.31 -1.29,-4.73 -4.73,-7.93 -9.69,-7.93 -6.61,0 -11.83,5.9 -11.83,16.45 0,8.63 4.26,15.38 11.72,15.38 4.73,0 8.4,-3.08 9.57,-7.22 0.47,-1.41 0.58,-3.32 0.58,-4.85l0 -8.51zm18 25.9c0,11.13 -2.26,20.23 -8.87,26.02 -6.25,5.46 -14.91,7.1 -23.43,7.1 -7.69,0 -15.62,-1.52 -20.81,-4.37l3.55 -13.72c3.67,2.11 9.95,4.34 16.79,4.34 8.51,0 15.03,-4.46 15.03,-15.24l0 -3.67 -0.27 0c-3.4,4.73 -8.98,7.46 -15.59,7.46 -14.33,0 -24.49,-11.59 -24.49,-28.16 0,-18.67 11.95,-30.5 26.25,-30.5 7.92,0 12.92,3.44 15.85,8.28l0.23 0 0.62 -6.99 15.59 0c-0.23,3.79 -0.47,8.63 -0.47,17.26l0 32.18z"/>
  <path class="fil2" d="M2488 680.46c0,-4.38 -1.88,-11.72 -10.19,-11.72 -7.55,0 -10.63,6.99 -11.13,11.72l21.31 0zm-21.2 12.3c0.5,7.46 7.96,10.98 16.33,10.98 6.16,0 11.13,-0.82 15.97,-2.46l2.37 12.18c-5.9,2.46 -13.12,3.67 -20.93,3.67 -19.64,0 -30.89,-11.37 -30.89,-29.45 0,-14.68 9.13,-30.89 29.21,-30.89 18.7,0 25.78,14.56 25.78,28.86 0,3.08 -0.32,5.81 -0.56,7.11l-37.29 0z"/>
  <path class="fil2" d="M2515.47 676.56c0,-7.22 -0.26,-13.24 -0.5,-18.43l15.65 0 0.79 8.04 0.38 0c2.35,-3.79 8.16,-9.36 17.85,-9.36 11.8,0 20.7,7.92 20.7,24.95l0 34.18 -17.97 0 0 -32.03c0,-7.46 -2.61,-12.53 -9.13,-12.53 -4.96,0 -7.9,3.4 -9.22,6.72 -0.47,1.18 -0.59,2.85 -0.59,4.53l0 33.32 -17.97 0 0 -39.37z"/>
  <path class="fil3" d="M409.76 73.26c-183.94,0 -333.03,149.09 -333.03,333 0,113.77 57.1,214.16 144.1,274.25l37.9 -120.82c0,-4.94 0.42,-9.3 1.09,-13.36 -34.3,-36.7 -55.35,-85.94 -55.35,-140.08 0,-113.36 91.96,-205.23 205.28,-205.23 113.4,0 205.26,91.86 205.26,205.23 0,56.23 -22.55,107.14 -59.16,144.21 0.17,2.91 0.37,5.96 0.37,9.22l29.36 129.33c94.36,-58.78 157.2,-163.42 157.2,-282.77 0,-183.91 -149.07,-333 -333.04,-333z"/>
  <path class="fil3" d="M585.24 824.18c0,50.29 -38.4,50.58 -85.61,50.58l-206.84 0c-47.21,0 -85.59,-0.29 -85.59,-50.58l68.97 -219.97c14.36,-50.65 38.28,-48.04 85.59,-48.04l87.99 0c47.21,0 72.81,-6.13 85.53,48.04l49.97 219.97z"/>
  <path class="fil4" d="M472.73 407.48c0,34.8 -28.19,63.01 -62.98,63.01 -34.8,0 -62.99,-28.21 -62.99,-63.01 0,-34.79 28.19,-63 62.99,-63 34.79,0 62.98,28.21 62.98,63z"/>
 </g>
</svg>
